<mxfile host="app.diagrams.net" modified="2024-02-16T21:57:35.074Z" agent="Mozilla/5.0 (Windows NT 10.0; Win64; x64) AppleWebKit/537.36 (KHTML, like Gecko) Chrome/121.0.0.0 Safari/537.36" version="23.1.5" etag="zcnLRY4Z1OXd3MS_KSsY" type="github">
  <diagram name="PÃ¡gina-1" id="KnyKLBCKiO3bjy8AKNpG">
    <mxGraphModel>
      <root>
        <mxCell id="0" />
        <mxCell id="1" parent="0" />
      </root>
    </mxGraphModel>
  </diagram>
</mxfile>
